<?xml version="1.0" standalone="yes"?>
<svg xmlns="http://www.w3.org/2000/svg" width="1080" height="1080">
<path style="fill:#e74f35; stroke:none;" d="M0 0L0 1080L1080 1080L1080 0L0 0z"/>
<path style="fill:#ec6e5a; stroke:none;" d="M804 361L782 384C788.515 379.411 802.102 368.832 804 361z"/>
<path style="fill:#f7beb4; stroke:none;" d="M805 361L786 381C791.875 376.861 803.28 368.094 805 361z"/>
<path style="fill:#ffffff; stroke:none;" d="M522 723C551.541 712.944 580.542 698.133 609 685.306C623.937 678.573 642.58 673.745 656 664.351C675.145 650.949 691.47 629.53 708 613C740.488 580.512 773.494 548.506 806 516L861 461C866.959 455.041 879.839 447.266 882.307 439C883.637 434.545 880.826 428.258 879.576 424C875.008 408.447 866.969 394.1 855 383.093C845.424 374.287 833.199 369.031 821 365.001C816.968 363.669 811.32 361.125 807 362.042C798.883 363.768 789.721 377.279 784 383C765.301 401.699 746.271 420.124 728.196 439.424C695.57 474.263 660.752 507.248 627 541C612.296 555.704 593.742 570.091 581.637 587C571.264 601.491 566.01 621.77 558.694 638C546.422 665.228 529.872 694.219 522 723z"/>
<path style="fill:#f7beb4; stroke:none;" d="M807.667 361.333L808.333 361.667L807.667 361.333z"/>
<path style="fill:#f19484; stroke:none;" d="M809.667 361.333L810.333 361.667L809.667 361.333z"/>
<path style="fill:#ec6e5a; stroke:none;" d="M811 361L812 362L811 361z"/>
<path style="fill:#f7beb4; stroke:none;" d="M812 362L813 363L812 362z"/>
<path style="fill:#f19484; stroke:none;" d="M813 362L814 363L813 362z"/>
<path style="fill:#ec6e5a; stroke:none;" d="M814.667 362.333L815.333 362.667L814.667 362.333M203 363L204 364L203 363z"/>
<path style="fill:#f19484; stroke:none;" d="M313 420L313 419L204 419L204 364L491 364L470 363L426 363L272 363L223 363L204.603 364.028L203 375L203 407L205.318 419.397L236 420L313 420z"/>
<path style="fill:#f7beb4; stroke:none;" d="M816 363L817 364L816 363z"/>
<path style="fill:#f19484; stroke:none;" d="M817 363L818 364L817 363z"/>
<path style="fill:#ec6e5a; stroke:none;" d="M818 363L819 364L818 363z"/>
<path style="fill:#ffffff; stroke:none;" d="M204 364L204 419L314 419L314 727L381 727L381 419L490 419L490 364L204 364z"/>
<path style="fill:#f7beb4; stroke:none;" d="M490 364L490 419L491 419L491 382L490 364M819 364L820 365L819 364z"/>
<path style="fill:#f19484; stroke:none;" d="M820 364L821 365L820 364z"/>
<path style="fill:#ec6e5a; stroke:none;" d="M821.667 364.333L822.333 364.667L821.667 364.333z"/>
<path style="fill:#f7beb4; stroke:none;" d="M822 365L823 366L822 365z"/>
<path style="fill:#f19484; stroke:none;" d="M823 365L824 366L823 365z"/>
<path style="fill:#ec6e5a; stroke:none;" d="M824 365L825 366L824 365z"/>
<path style="fill:#f7beb4; stroke:none;" d="M825 366L826 367L825 366z"/>
<path style="fill:#f19484; stroke:none;" d="M826 366L827 367L826 366z"/>
<path style="fill:#ec6e5a; stroke:none;" d="M827 366L828 367L827 366z"/>
<path style="fill:#f7beb4; stroke:none;" d="M828 367L829 368L828 367z"/>
<path style="fill:#f19484; stroke:none;" d="M829 367L830 368L829 367z"/>
<path style="fill:#ec6e5a; stroke:none;" d="M830 367L831 368L830 367z"/>
<path style="fill:#f7beb4; stroke:none;" d="M830 368L831 369L830 368z"/>
<path style="fill:#f19484; stroke:none;" d="M831 368L832 369L831 368z"/>
<path style="fill:#ec6e5a; stroke:none;" d="M832 368L833 369L832 368z"/>
<path style="fill:#f7beb4; stroke:none;" d="M833 369L834 370L833 369z"/>
<path style="fill:#ec6e5a; stroke:none;" d="M834 369L835 370L834 369z"/>
<path style="fill:#f7beb4; stroke:none;" d="M835 370L836 371L835 370z"/>
<path style="fill:#f19484; stroke:none;" d="M836 370L837 371L836 370z"/>
<path style="fill:#ec6e5a; stroke:none;" d="M837 370L838 371L837 370z"/>
<path style="fill:#f7beb4; stroke:none;" d="M837 371L838 372L837 371z"/>
<path style="fill:#f19484; stroke:none;" d="M838 371L839 372L838 371z"/>
<path style="fill:#f7beb4; stroke:none;" d="M839 372L840 373L839 372z"/>
<path style="fill:#ec6e5a; stroke:none;" d="M840 372L841 373L840 372z"/>
<path style="fill:#f7beb4; stroke:none;" d="M841 373L842 374L841 373z"/>
<path style="fill:#ec6e5a; stroke:none;" d="M842 373L843 374L842 373z"/>
<path style="fill:#f19484; stroke:none;" d="M843 374L844 375L843 374z"/>
<path style="fill:#ec6e5a; stroke:none;" d="M844 374L845 375L844 374z"/>
<path style="fill:#f7beb4; stroke:none;" d="M844 375L845 376L844 375z"/>
<path style="fill:#f19484; stroke:none;" d="M845 375L846 376L845 375z"/>
<path style="fill:#f7beb4; stroke:none;" d="M846 376L848 378L846 376z"/>
<path style="fill:#ec6e5a; stroke:none;" d="M847 376L848 377L847 376z"/>
<path style="fill:#f19484; stroke:none;" d="M848 377L849 378L848 377z"/>
<path style="fill:#f7beb4; stroke:none;" d="M849 378L851 380L849 378z"/>
<path style="fill:#ec6e5a; stroke:none;" d="M850 378L851 379L850 378M851 379L852 380L851 379z"/>
<path style="fill:#f19484; stroke:none;" d="M852 380L853 381L852 380M785 381L786 382L785 381z"/>
<path style="fill:#f7beb4; stroke:none;" d="M853 381L863 391L853 381z"/>
<path style="fill:#ec6e5a; stroke:none;" d="M854 381L855 382L854 381z"/>
<path style="fill:#f19484; stroke:none;" d="M784 382L785 383L784 382z"/>
<path style="fill:#ec6e5a; stroke:none;" d="M855 382L856 383L855 382z"/>
<path style="fill:#f19484; stroke:none;" d="M783 383L784 384L783 383z"/>
<path style="fill:#ec6e5a; stroke:none;" d="M856 383L857 384L856 383z"/>
<path style="fill:#f19484; stroke:none;" d="M782 384L783 385L782 384z"/>
<path style="fill:#ec6e5a; stroke:none;" d="M857 384L858 385L857 384z"/>
<path style="fill:#f19484; stroke:none;" d="M781 385L782 386L781 385z"/>
<path style="fill:#ec6e5a; stroke:none;" d="M858 385L859 386L858 385M779 386L780 387L779 386z"/>
<path style="fill:#f19484; stroke:none;" d="M780 386L781 387L780 386z"/>
<path style="fill:#ec6e5a; stroke:none;" d="M859 386L860 387L859 386z"/>
<path style="fill:#f19484; stroke:none;" d="M779 387L780 388L779 387z"/>
<path style="fill:#ec6e5a; stroke:none;" d="M860 387L861 388L860 387z"/>
<path style="fill:#f19484; stroke:none;" d="M778 388L779 389L778 388z"/>
<path style="fill:#ec6e5a; stroke:none;" d="M861 388L862 389L861 388z"/>
<path style="fill:#f19484; stroke:none;" d="M777 389L778 390L777 389z"/>
<path style="fill:#ec6e5a; stroke:none;" d="M862 389L863 390L862 389z"/>
<path style="fill:#f19484; stroke:none;" d="M776 390L777 391L776 390z"/>
<path style="fill:#ec6e5a; stroke:none;" d="M863 390L864 391L863 390z"/>
<path style="fill:#f19484; stroke:none;" d="M775 391L776 392L775 391M863 391L864 392L863 391M774 392L775 393L774 392M864 392L865 393L864 392M773 393L774 394L773 393z"/>
<path style="fill:#f7beb4; stroke:none;" d="M864 393L867 396L864 393z"/>
<path style="fill:#ec6e5a; stroke:none;" d="M865 393L866 394L865 393z"/>
<path style="fill:#f19484; stroke:none;" d="M772 394L773 395L772 394z"/>
<path style="fill:#ec6e5a; stroke:none;" d="M866 394L867 395L866 394z"/>
<path style="fill:#f19484; stroke:none;" d="M771 395L772 396L771 395M770 396L771 397L770 396M867 396L868 397L867 396M769 397L770 398L769 397z"/>
<path style="fill:#f7beb4; stroke:none;" d="M867 397L869 399L867 397z"/>
<path style="fill:#ec6e5a; stroke:none;" d="M868 397L869 398L868 397z"/>
<path style="fill:#f19484; stroke:none;" d="M768 398L769 399L768 398M767 399L768 400L767 399M869 399L870 400L869 399M766 400L767 401L766 400z"/>
<path style="fill:#f7beb4; stroke:none;" d="M869 400L870 401L869 400z"/>
<path style="fill:#ec6e5a; stroke:none;" d="M870 400L871 401L870 400z"/>
<path style="fill:#f19484; stroke:none;" d="M765 401L766 402L765 401M870 401L871 402L870 401M764 402L765 403L764 402z"/>
<path style="fill:#f7beb4; stroke:none;" d="M870 402L871 403L870 402z"/>
<path style="fill:#ec6e5a; stroke:none;" d="M871 402L872 403L871 402z"/>
<path style="fill:#f19484; stroke:none;" d="M763 403L764 404L763 403M871 403L872 404L871 403M762 404L763 405L762 404z"/>
<path style="fill:#f7beb4; stroke:none;" d="M871 404L874 411L875 411L871 404z"/>
<path style="fill:#ec6e5a; stroke:none;" d="M872 404L873 405L872 404z"/>
<path style="fill:#f19484; stroke:none;" d="M761 405L762 406L761 405M760 406L761 407L760 406z"/>
<path style="fill:#ec6e5a; stroke:none;" d="M873 406L874 407L873 406z"/>
<path style="fill:#f19484; stroke:none;" d="M759 407L760 408L759 407M758 408L759 409L758 408z"/>
<path style="fill:#ec6e5a; stroke:none;" d="M874 408L875 409L874 408z"/>
<path style="fill:#f19484; stroke:none;" d="M757 409L758 410L757 409M756 410L757 411L756 410z"/>
<path style="fill:#ec6e5a; stroke:none;" d="M875 410L876 411L875 410z"/>
<path style="fill:#f19484; stroke:none;" d="M755 411L756 412L755 411M875 411L876 412L875 411M754 412L755 413L754 412z"/>
<path style="fill:#f7beb4; stroke:none;" d="M875 412L876 413L875 412z"/>
<path style="fill:#ec6e5a; stroke:none;" d="M876 412L877 413L876 412z"/>
<path style="fill:#f19484; stroke:none;" d="M753 413L754 414L753 413M876 413L877 414L876 413M752 414L753 415L752 414z"/>
<path style="fill:#f7beb4; stroke:none;" d="M876 414L877 418L878 418L876 414z"/>
<path style="fill:#f19484; stroke:none;" d="M751 415L752 416L751 415M877 415L878 416L877 415M750 416L751 417L750 416M749 417L750 418L749 417z"/>
<path style="fill:#ec6e5a; stroke:none;" d="M878 417L879 418L878 417z"/>
<path style="fill:#f19484; stroke:none;" d="M748 418L749 419L748 418M878 418L879 419L878 418z"/>
<path style="fill:#ec6e5a; stroke:none;" d="M203 419L204 420L203 419z"/>
<path style="fill:#f7beb4; stroke:none;" d="M313 419L313 727L314 727L314 509L314 447L313 419z"/>
<path style="fill:#f19484; stroke:none;" d="M381 419L381 420L491 420L457 419L381 419M747 419L748 420L747 419z"/>
<path style="fill:#f7beb4; stroke:none;" d="M878.333 419.667L878.667 420.333L878.333 419.667z"/>
<path style="fill:#ec6e5a; stroke:none;" d="M381 420L381 727L382 727L382 510L382 448L381 420z"/>
<path style="fill:#f19484; stroke:none;" d="M746 420L747 421L746 420z"/>
<path style="fill:#ec6e5a; stroke:none;" d="M879 420L880 421L879 420z"/>
<path style="fill:#f19484; stroke:none;" d="M745 421L746 422L745 421M879 421L880 422L879 421M744 422L745 423L744 422z"/>
<path style="fill:#f7beb4; stroke:none;" d="M879.333 422.667L879.667 423.333L879.333 422.667z"/>
<path style="fill:#f19484; stroke:none;" d="M743 423L744 424L743 423z"/>
<path style="fill:#ec6e5a; stroke:none;" d="M880 423L881 424L880 423z"/>
<path style="fill:#f19484; stroke:none;" d="M742 424L743 425L742 424M880 424L881 425L880 424M741 425L742 426L741 425z"/>
<path style="fill:#f7beb4; stroke:none;" d="M880 425L880 428L881 428L880 425z"/>
<path style="fill:#f19484; stroke:none;" d="M740 426L741 427L740 426z"/>
<path style="fill:#ec6e5a; stroke:none;" d="M881 426L882 427L881 426z"/>
<path style="fill:#f19484; stroke:none;" d="M739 427L740 428L739 427M881.333 427.667L881.667 428.333L881.333 427.667M738 428L739 429L738 428M737 429L738 430L737 429z"/>
<path style="fill:#f7beb4; stroke:none;" d="M881.333 429.667L881.667 430.333L881.333 429.667z"/>
<path style="fill:#f19484; stroke:none;" d="M736 430L737 431L736 430z"/>
<path style="fill:#ec6e5a; stroke:none;" d="M882 430L883 431L882 430z"/>
<path style="fill:#f19484; stroke:none;" d="M735 431L736 432L735 431M882.333 431.667L882.667 432.333L882.333 431.667M734 432L735 433L734 432M733 433L734 434L733 433z"/>
<path style="fill:#f7beb4; stroke:none;" d="M882 433L882 436L883 436L882 433z"/>
<path style="fill:#f19484; stroke:none;" d="M732 434L733 435L732 434z"/>
<path style="fill:#ec6e5a; stroke:none;" d="M883 434L884 435L883 434z"/>
<path style="fill:#f19484; stroke:none;" d="M731 435L732 436L731 435M883.333 435.667L883.667 436.333L883.333 435.667M730 436L728 439L730 436z"/>
<path style="fill:#f7beb4; stroke:none;" d="M730 437L731 438L730 437M883.333 437.667L883.667 438.333L883.333 437.667M729 438L730 439L729 438z"/>
<path style="fill:#f19484; stroke:none;" d="M727 439L728 440L727 439M883 439L884 440L883 439M726 440L713 454L726 440M882 440L883 441L882 440z"/>
<path style="fill:#f7beb4; stroke:none;" d="M726 441L727 442L726 441z"/>
<path style="fill:#f19484; stroke:none;" d="M881 441L882 442L881 441z"/>
<path style="fill:#f7beb4; stroke:none;" d="M725 442L726 443L725 442z"/>
<path style="fill:#f19484; stroke:none;" d="M880 442L881 443L880 442z"/>
<path style="fill:#f7beb4; stroke:none;" d="M724 443L725 444L724 443z"/>
<path style="fill:#f19484; stroke:none;" d="M879 443L880 444L879 443z"/>
<path style="fill:#f7beb4; stroke:none;" d="M723 444L724 445L723 444z"/>
<path style="fill:#f19484; stroke:none;" d="M878 444L879 445L878 444z"/>
<path style="fill:#f7beb4; stroke:none;" d="M722 445L723 446L722 445z"/>
<path style="fill:#f19484; stroke:none;" d="M877 445L878 446L877 445z"/>
<path style="fill:#f7beb4; stroke:none;" d="M721 446L722 447L721 446z"/>
<path style="fill:#f19484; stroke:none;" d="M876 446L877 447L876 446z"/>
<path style="fill:#f7beb4; stroke:none;" d="M720 447L721 448L720 447z"/>
<path style="fill:#f19484; stroke:none;" d="M875 447L876 448L875 447z"/>
<path style="fill:#f7beb4; stroke:none;" d="M719 448L720 449L719 448z"/>
<path style="fill:#f19484; stroke:none;" d="M874 448L875 449L874 448z"/>
<path style="fill:#f7beb4; stroke:none;" d="M718 449L719 450L718 449z"/>
<path style="fill:#f19484; stroke:none;" d="M873 449L874 450L873 449z"/>
<path style="fill:#f7beb4; stroke:none;" d="M717 450L718 451L717 450z"/>
<path style="fill:#f19484; stroke:none;" d="M872 450L873 451L872 450z"/>
<path style="fill:#f7beb4; stroke:none;" d="M716 451L717 452L716 451M870 451L817 504L789 533C811.091 517.439 829.878 493.122 849 474C854.916 468.084 868.018 459.178 870 451z"/>
<path style="fill:#f19484; stroke:none;" d="M871 451L872 452L871 451z"/>
<path style="fill:#f7beb4; stroke:none;" d="M715 452L716 453L715 452z"/>
<path style="fill:#f19484; stroke:none;" d="M870 452L871 453L870 452z"/>
<path style="fill:#f7beb4; stroke:none;" d="M714 453L715 454L714 453z"/>
<path style="fill:#f19484; stroke:none;" d="M869 453L870 454L869 453z"/>
<path style="fill:#ec6e5a; stroke:none;" d="M712 454L661 505L634 533C655.359 517.954 673.512 494.488 692 476C697.694 470.306 710.09 461.882 712 454z"/>
<path style="fill:#f7beb4; stroke:none;" d="M713 454L714 455L713 454z"/>
<path style="fill:#f19484; stroke:none;" d="M868 454L869 455L868 454z"/>
<path style="fill:#f7beb4; stroke:none;" d="M712 455L713 456L712 455z"/>
<path style="fill:#f19484; stroke:none;" d="M867 455L868 456L867 455z"/>
<path style="fill:#f7beb4; stroke:none;" d="M711 456L712 457L711 456z"/>
<path style="fill:#f19484; stroke:none;" d="M866 456L867 457L866 456z"/>
<path style="fill:#f7beb4; stroke:none;" d="M710 457L711 458L710 457z"/>
<path style="fill:#f19484; stroke:none;" d="M865 457L866 458L865 457z"/>
<path style="fill:#f7beb4; stroke:none;" d="M709 458L710 459L709 458z"/>
<path style="fill:#f19484; stroke:none;" d="M864 458L865 459L864 458z"/>
<path style="fill:#f7beb4; stroke:none;" d="M708 459L709 460L708 459z"/>
<path style="fill:#f19484; stroke:none;" d="M863 459L864 460L863 459z"/>
<path style="fill:#f7beb4; stroke:none;" d="M707 460L708 461L707 460z"/>
<path style="fill:#f19484; stroke:none;" d="M862 460L863 461L862 460z"/>
<path style="fill:#f7beb4; stroke:none;" d="M706 461L707 462L706 461z"/>
<path style="fill:#f19484; stroke:none;" d="M861 461L862 462L861 461z"/>
<path style="fill:#f7beb4; stroke:none;" d="M705 462L706 463L705 462z"/>
<path style="fill:#f19484; stroke:none;" d="M860 462L861 463L860 462z"/>
<path style="fill:#f7beb4; stroke:none;" d="M704 463L705 464L704 463z"/>
<path style="fill:#f19484; stroke:none;" d="M859 463L860 464L859 463z"/>
<path style="fill:#f7beb4; stroke:none;" d="M703 464L704 465L703 464z"/>
<path style="fill:#f19484; stroke:none;" d="M858 464L859 465L858 464z"/>
<path style="fill:#f7beb4; stroke:none;" d="M702 465L703 466L702 465z"/>
<path style="fill:#f19484; stroke:none;" d="M857 465L858 466L857 465z"/>
<path style="fill:#f7beb4; stroke:none;" d="M701 466L702 467L701 466z"/>
<path style="fill:#f19484; stroke:none;" d="M856 466L857 467L856 466z"/>
<path style="fill:#f7beb4; stroke:none;" d="M700 467L701 468L700 467z"/>
<path style="fill:#f19484; stroke:none;" d="M855 467L856 468L855 467z"/>
<path style="fill:#f7beb4; stroke:none;" d="M699 468L700 469L699 468z"/>
<path style="fill:#f19484; stroke:none;" d="M854 468L855 469L854 468z"/>
<path style="fill:#f7beb4; stroke:none;" d="M698 469L699 470L698 469z"/>
<path style="fill:#f19484; stroke:none;" d="M853 469L854 470L853 469z"/>
<path style="fill:#f7beb4; stroke:none;" d="M697 470L698 471L697 470z"/>
<path style="fill:#f19484; stroke:none;" d="M852 470L853 471L852 470z"/>
<path style="fill:#f7beb4; stroke:none;" d="M696 471L697 472L696 471z"/>
<path style="fill:#f19484; stroke:none;" d="M851 471L852 472L851 471z"/>
<path style="fill:#f7beb4; stroke:none;" d="M695 472L696 473L695 472z"/>
<path style="fill:#f19484; stroke:none;" d="M850 472L851 473L850 472z"/>
<path style="fill:#f7beb4; stroke:none;" d="M694 473L695 474L694 473z"/>
<path style="fill:#f19484; stroke:none;" d="M849 473L850 474L849 473z"/>
<path style="fill:#f7beb4; stroke:none;" d="M693 474L694 475L693 474z"/>
<path style="fill:#ec6e5a; stroke:none;" d="M848 474L849 475L848 474z"/>
<path style="fill:#f7beb4; stroke:none;" d="M692 475L693 476L692 475z"/>
<path style="fill:#ec6e5a; stroke:none;" d="M847 475L848 476L847 475z"/>
<path style="fill:#f7beb4; stroke:none;" d="M691 476L692 477L691 476z"/>
<path style="fill:#ec6e5a; stroke:none;" d="M846 476L847 477L846 476z"/>
<path style="fill:#f7beb4; stroke:none;" d="M690 477L691 478L690 477z"/>
<path style="fill:#ec6e5a; stroke:none;" d="M845 477L846 478L845 477z"/>
<path style="fill:#f7beb4; stroke:none;" d="M689 478L690 479L689 478z"/>
<path style="fill:#ec6e5a; stroke:none;" d="M844 478L845 479L844 478z"/>
<path style="fill:#f7beb4; stroke:none;" d="M688 479L689 480L688 479z"/>
<path style="fill:#ec6e5a; stroke:none;" d="M843 479L844 480L843 479z"/>
<path style="fill:#f7beb4; stroke:none;" d="M687 480L688 481L687 480z"/>
<path style="fill:#ec6e5a; stroke:none;" d="M842 480L843 481L842 480z"/>
<path style="fill:#f7beb4; stroke:none;" d="M686 481L687 482L686 481z"/>
<path style="fill:#ec6e5a; stroke:none;" d="M841 481L842 482L841 481z"/>
<path style="fill:#f7beb4; stroke:none;" d="M685 482L686 483L685 482z"/>
<path style="fill:#ec6e5a; stroke:none;" d="M840 482L841 483L840 482z"/>
<path style="fill:#f7beb4; stroke:none;" d="M684 483L685 484L684 483z"/>
<path style="fill:#ec6e5a; stroke:none;" d="M839 483L840 484L839 483z"/>
<path style="fill:#f7beb4; stroke:none;" d="M683 484L684 485L683 484z"/>
<path style="fill:#ec6e5a; stroke:none;" d="M838 484L839 485L838 484z"/>
<path style="fill:#f7beb4; stroke:none;" d="M682 485L683 486L682 485z"/>
<path style="fill:#ec6e5a; stroke:none;" d="M837 485L838 486L837 485z"/>
<path style="fill:#f7beb4; stroke:none;" d="M681 486L682 487L681 486z"/>
<path style="fill:#ec6e5a; stroke:none;" d="M836 486L837 487L836 486z"/>
<path style="fill:#f7beb4; stroke:none;" d="M680 487L681 488L680 487z"/>
<path style="fill:#ec6e5a; stroke:none;" d="M835 487L836 488L835 487z"/>
<path style="fill:#f7beb4; stroke:none;" d="M679 488L680 489L679 488z"/>
<path style="fill:#ec6e5a; stroke:none;" d="M834 488L835 489L834 488z"/>
<path style="fill:#f7beb4; stroke:none;" d="M678 489L679 490L678 489z"/>
<path style="fill:#ec6e5a; stroke:none;" d="M833 489L834 490L833 489z"/>
<path style="fill:#f7beb4; stroke:none;" d="M677 490L678 491L677 490z"/>
<path style="fill:#ec6e5a; stroke:none;" d="M832 490L833 491L832 490z"/>
<path style="fill:#f7beb4; stroke:none;" d="M676 491L677 492L676 491z"/>
<path style="fill:#ec6e5a; stroke:none;" d="M831 491L832 492L831 491z"/>
<path style="fill:#f7beb4; stroke:none;" d="M675 492L676 493L675 492z"/>
<path style="fill:#ec6e5a; stroke:none;" d="M830 492L831 493L830 492z"/>
<path style="fill:#f7beb4; stroke:none;" d="M674 493L675 494L674 493z"/>
<path style="fill:#ec6e5a; stroke:none;" d="M829 493L830 494L829 493z"/>
<path style="fill:#f7beb4; stroke:none;" d="M673 494L674 495L673 494z"/>
<path style="fill:#ec6e5a; stroke:none;" d="M828 494L829 495L828 494z"/>
<path style="fill:#f7beb4; stroke:none;" d="M672 495L673 496L672 495z"/>
<path style="fill:#ec6e5a; stroke:none;" d="M827 495L828 496L827 495z"/>
<path style="fill:#f7beb4; stroke:none;" d="M671 496L672 497L671 496z"/>
<path style="fill:#ec6e5a; stroke:none;" d="M826 496L827 497L826 496z"/>
<path style="fill:#f7beb4; stroke:none;" d="M670 497L671 498L670 497z"/>
<path style="fill:#ec6e5a; stroke:none;" d="M825 497L826 498L825 497z"/>
<path style="fill:#f7beb4; stroke:none;" d="M669 498L670 499L669 498z"/>
<path style="fill:#ec6e5a; stroke:none;" d="M824 498L825 499L824 498z"/>
<path style="fill:#f7beb4; stroke:none;" d="M668 499L669 500L668 499z"/>
<path style="fill:#ec6e5a; stroke:none;" d="M823 499L824 500L823 499z"/>
<path style="fill:#f7beb4; stroke:none;" d="M667 500L668 501L667 500z"/>
<path style="fill:#ec6e5a; stroke:none;" d="M822 500L823 501L822 500z"/>
<path style="fill:#f7beb4; stroke:none;" d="M666 501L667 502L666 501z"/>
<path style="fill:#ec6e5a; stroke:none;" d="M821 501L822 502L821 501z"/>
<path style="fill:#f7beb4; stroke:none;" d="M665 502L666 503L665 502z"/>
<path style="fill:#ec6e5a; stroke:none;" d="M820 502L821 503L820 502z"/>
<path style="fill:#f7beb4; stroke:none;" d="M664 503L665 504L664 503z"/>
<path style="fill:#ec6e5a; stroke:none;" d="M819 503L820 504L819 503z"/>
<path style="fill:#f7beb4; stroke:none;" d="M663 504L664 505L663 504z"/>
<path style="fill:#ec6e5a; stroke:none;" d="M818 504L819 505L818 504z"/>
<path style="fill:#f7beb4; stroke:none;" d="M662 505L663 506L662 505z"/>
<path style="fill:#ec6e5a; stroke:none;" d="M817 505L818 506L817 505z"/>
<path style="fill:#f7beb4; stroke:none;" d="M661 506L662 507L661 506z"/>
<path style="fill:#ec6e5a; stroke:none;" d="M816 506L817 507L816 506z"/>
<path style="fill:#f7beb4; stroke:none;" d="M660 507L661 508L660 507z"/>
<path style="fill:#ec6e5a; stroke:none;" d="M815 507L816 508L815 507z"/>
<path style="fill:#f7beb4; stroke:none;" d="M659 508L660 509L659 508z"/>
<path style="fill:#ec6e5a; stroke:none;" d="M814 508L815 509L814 508z"/>
<path style="fill:#f7beb4; stroke:none;" d="M658 509L659 510L658 509z"/>
<path style="fill:#ec6e5a; stroke:none;" d="M813 509L814 510L813 509z"/>
<path style="fill:#f7beb4; stroke:none;" d="M657 510L658 511L657 510z"/>
<path style="fill:#ec6e5a; stroke:none;" d="M812 510L813 511L812 510z"/>
<path style="fill:#f7beb4; stroke:none;" d="M656 511L657 512L656 511z"/>
<path style="fill:#ec6e5a; stroke:none;" d="M811 511L812 512L811 511z"/>
<path style="fill:#f7beb4; stroke:none;" d="M655 512L656 513L655 512z"/>
<path style="fill:#ec6e5a; stroke:none;" d="M810 512L811 513L810 512z"/>
<path style="fill:#f7beb4; stroke:none;" d="M654 513L655 514L654 513z"/>
<path style="fill:#ec6e5a; stroke:none;" d="M809 513L810 514L809 513z"/>
<path style="fill:#f7beb4; stroke:none;" d="M653 514L654 515L653 514z"/>
<path style="fill:#ec6e5a; stroke:none;" d="M808 514L809 515L808 514z"/>
<path style="fill:#f7beb4; stroke:none;" d="M652 515L653 516L652 515z"/>
<path style="fill:#ec6e5a; stroke:none;" d="M807 515L808 516L807 515z"/>
<path style="fill:#f7beb4; stroke:none;" d="M651 516L652 517L651 516z"/>
<path style="fill:#ec6e5a; stroke:none;" d="M806 516L807 517L806 516z"/>
<path style="fill:#f7beb4; stroke:none;" d="M650 517L651 518L650 517z"/>
<path style="fill:#ec6e5a; stroke:none;" d="M805 517L806 518L805 517z"/>
<path style="fill:#f7beb4; stroke:none;" d="M649 518L650 519L649 518z"/>
<path style="fill:#ec6e5a; stroke:none;" d="M804 518L805 519L804 518z"/>
<path style="fill:#f7beb4; stroke:none;" d="M648 519L649 520L648 519z"/>
<path style="fill:#ec6e5a; stroke:none;" d="M803 519L804 520L803 519z"/>
<path style="fill:#f7beb4; stroke:none;" d="M647 520L648 521L647 520z"/>
<path style="fill:#ec6e5a; stroke:none;" d="M802 520L803 521L802 520z"/>
<path style="fill:#f7beb4; stroke:none;" d="M646 521L647 522L646 521z"/>
<path style="fill:#ec6e5a; stroke:none;" d="M801 521L802 522L801 521z"/>
<path style="fill:#f7beb4; stroke:none;" d="M645 522L646 523L645 522z"/>
<path style="fill:#ec6e5a; stroke:none;" d="M800 522L801 523L800 522z"/>
<path style="fill:#f7beb4; stroke:none;" d="M644 523L645 524L644 523z"/>
<path style="fill:#ec6e5a; stroke:none;" d="M799 523L800 524L799 523z"/>
<path style="fill:#f7beb4; stroke:none;" d="M643 524L644 525L643 524z"/>
<path style="fill:#ec6e5a; stroke:none;" d="M798 524L799 525L798 524z"/>
<path style="fill:#f7beb4; stroke:none;" d="M642 525L643 526L642 525z"/>
<path style="fill:#ec6e5a; stroke:none;" d="M797 525L798 526L797 525z"/>
<path style="fill:#f7beb4; stroke:none;" d="M641 526L642 527L641 526z"/>
<path style="fill:#ec6e5a; stroke:none;" d="M796 526L797 527L796 526z"/>
<path style="fill:#f7beb4; stroke:none;" d="M640 527L641 528L640 527z"/>
<path style="fill:#ec6e5a; stroke:none;" d="M795 527L796 528L795 527z"/>
<path style="fill:#f7beb4; stroke:none;" d="M639 528L640 529L639 528z"/>
<path style="fill:#ec6e5a; stroke:none;" d="M794 528L795 529L794 528z"/>
<path style="fill:#f19484; stroke:none;" d="M638 529L639 530L638 529z"/>
<path style="fill:#ec6e5a; stroke:none;" d="M793 529L794 530L793 529z"/>
<path style="fill:#f19484; stroke:none;" d="M637 530L638 531L637 530z"/>
<path style="fill:#ec6e5a; stroke:none;" d="M792 530L793 531L792 530z"/>
<path style="fill:#f19484; stroke:none;" d="M636 531L637 532L636 531z"/>
<path style="fill:#ec6e5a; stroke:none;" d="M791 531L792 532L791 531z"/>
<path style="fill:#f19484; stroke:none;" d="M635 532L636 533L635 532z"/>
<path style="fill:#ec6e5a; stroke:none;" d="M790 532L791 533L790 532z"/>
<path style="fill:#f19484; stroke:none;" d="M634 533L635 534L634 533z"/>
<path style="fill:#f7beb4; stroke:none;" d="M788 533L789 534L788 533z"/>
<path style="fill:#f19484; stroke:none;" d="M633 534L634 535L633 534z"/>
<path style="fill:#f7beb4; stroke:none;" d="M787 534L788 535L787 534z"/>
<path style="fill:#f19484; stroke:none;" d="M632 535L633 536L632 535z"/>
<path style="fill:#f7beb4; stroke:none;" d="M786 535L787 536L786 535z"/>
<path style="fill:#f19484; stroke:none;" d="M631 536L632 537L631 536z"/>
<path style="fill:#f7beb4; stroke:none;" d="M785 536L786 537L785 536z"/>
<path style="fill:#f19484; stroke:none;" d="M630 537L631 538L630 537z"/>
<path style="fill:#f7beb4; stroke:none;" d="M784 537L785 538L784 537z"/>
<path style="fill:#f19484; stroke:none;" d="M629 538L630 539L629 538z"/>
<path style="fill:#f7beb4; stroke:none;" d="M783 538L784 539L783 538z"/>
<path style="fill:#f19484; stroke:none;" d="M628 539L629 540L628 539z"/>
<path style="fill:#f7beb4; stroke:none;" d="M782 539L783 540L782 539z"/>
<path style="fill:#f19484; stroke:none;" d="M627 540L628 541L627 540z"/>
<path style="fill:#f7beb4; stroke:none;" d="M781 540L782 541L781 540z"/>
<path style="fill:#f19484; stroke:none;" d="M626 541L627 542L626 541z"/>
<path style="fill:#f7beb4; stroke:none;" d="M780 541L781 542L780 541z"/>
<path style="fill:#f19484; stroke:none;" d="M625 542L626 543L625 542M779 542L780 543L779 542M624 543L625 544L624 543M778 543L779 544L778 543M623 544L624 545L623 544M777 544L778 545L777 544M622 545L623 546L622 545M776 545L777 546L776 545M621 546L622 547L621 546M775 546L776 547L775 546M620 547L621 548L620 547M774 547L775 548L774 547M619 548L620 549L619 548M773 548L774 549L773 548M618 549L619 550L618 549M772 549L773 550L772 549M617 550L618 551L617 550M771 550L772 551L771 550M616 551L617 552L616 551M770 551L771 552L770 551M615 552L616 553L615 552M769 552L770 553L769 552M614 553L615 554L614 553M768 553L769 554L768 553M613 554L614 555L613 554M767 554L768 555L767 554M612 555L613 556L612 555M766 555L767 556L766 555M611 556L612 557L611 556M765 556L766 557L765 556M610 557L611 558L610 557M764 557L765 558L764 557M609 558L610 559L609 558M763 558L764 559L763 558M608 559L609 560L608 559M762 559L763 560L762 559M607 560L608 561L607 560M761 560L762 561L761 560M606 561L607 562L606 561M760 561L761 562L760 561M605 562L606 563L605 562M759 562L760 563L759 562M604 563L605 564L604 563M758 563L759 564L758 563M603 564L604 565L603 564M757 564L758 565L757 564M602 565L603 566L602 565M756 565L757 566L756 565M601 566L602 567L601 566M755 566L756 567L755 566M600 567L601 568L600 567M754 567L755 568L754 567M599 568L600 569L599 568M753 568L754 569L753 568M598 569L599 570L598 569M752 569L753 570L752 569M597 570L598 571L597 570M751 570L752 571L751 570M596 571L597 572L596 571M750 571L751 572L750 571M595 572L596 573L595 572M749 572L750 573L749 572M594 573L595 574L594 573M748 573L749 574L748 573M593 574L594 575L593 574M747 574L748 575L747 574M592 575L593 576L592 575M746 575L747 576L746 575M591 576L592 577L591 576M745 576L746 577L745 576M590 577L591 578L590 577M744 577L745 578L744 577M589 578L590 579L589 578M743 578L744 579L743 578M588 579L589 580L588 579M742 579L743 580L742 579M587 580L588 581L587 580M741 580L742 581L741 580M586 581L587 582L586 581M740 581L741 582L740 581M585 582L586 583L585 582M739 582L740 583L739 582M584 583L585 584L584 583M738 583L739 584L738 583M583 584L584 585L583 584M737 584L738 585L737 584M582 585L583 586L582 585M736 585L737 586L736 585M581 586L582 587L581 586M735 586L736 587L735 586M580 587L581 588L580 587M734 587L735 588L734 587z"/>
<path style="fill:#ec6e5a; stroke:none;" d="M579 588L580 589L579 588z"/>
<path style="fill:#f7beb4; stroke:none;" d="M580 588L581 589L580 588z"/>
<path style="fill:#f19484; stroke:none;" d="M733 588L734 589L733 588M579 589L580 590L579 589M732 589L733 590L732 589z"/>
<path style="fill:#ec6e5a; stroke:none;" d="M578 590L579 591L578 590z"/>
<path style="fill:#f7beb4; stroke:none;" d="M579 590L580 591L579 590z"/>
<path style="fill:#f19484; stroke:none;" d="M731 590L732 591L731 590M578 591L579 592L578 591M730 591L731 592L730 591z"/>
<path style="fill:#ec6e5a; stroke:none;" d="M577 592L578 593L577 592z"/>
<path style="fill:#f7beb4; stroke:none;" d="M578 592L579 593L578 592z"/>
<path style="fill:#f19484; stroke:none;" d="M729 592L730 593L729 592M577 593L578 594L577 593z"/>
<path style="fill:#f7beb4; stroke:none;" d="M583.333 593.667L583.667 594.333L583.333 593.667z"/>
<path style="fill:#ec6e5a; stroke:none;" d="M584 593L585 594L584 593z"/>
<path style="fill:#e74f35; stroke:none;" d="M585 593L560.719 648L552.816 668.787L563.985 677.329L575 693C599.778 685.917 628.605 672.745 651 660C642.129 628.506 618.47 599.927 585 593z"/>
<path style="fill:#ec6e5a; stroke:none;" d="M587 593L588 594L587 593z"/>
<path style="fill:#f19484; stroke:none;" d="M588 593L589 594L588 593z"/>
<path style="fill:#f7beb4; stroke:none;" d="M589.667 593.333L590.333 593.667L589.667 593.333M727 593C704.069 615.931 674.656 638.516 656 665L708 614L727 593z"/>
<path style="fill:#f19484; stroke:none;" d="M728 593L729 594L728 593z"/>
<path style="fill:#ec6e5a; stroke:none;" d="M576 594L577 595L576 594z"/>
<path style="fill:#f7beb4; stroke:none;" d="M577 594L578 595L577 594z"/>
<path style="fill:#ec6e5a; stroke:none;" d="M591 594L592 595L591 594z"/>
<path style="fill:#f19484; stroke:none;" d="M592 594L593 595L592 594z"/>
<path style="fill:#f7beb4; stroke:none;" d="M593 594L594 595L593 594z"/>
<path style="fill:#f19484; stroke:none;" d="M727 594L728 595L727 594M576 595L577 596L576 595M583 595L584 596L583 595z"/>
<path style="fill:#ec6e5a; stroke:none;" d="M594 595L595 596L594 595z"/>
<path style="fill:#f19484; stroke:none;" d="M595 595L596 596L595 595z"/>
<path style="fill:#f7beb4; stroke:none;" d="M596 595L597 596L596 595z"/>
<path style="fill:#f19484; stroke:none;" d="M726 595L727 596L726 595z"/>
<path style="fill:#f7beb4; stroke:none;" d="M576.333 596.667L576.667 597.333L576.333 596.667M582 596L583 597L582 596z"/>
<path style="fill:#ec6e5a; stroke:none;" d="M583 596L584 597L583 596M597 596L598 597L597 596z"/>
<path style="fill:#f7beb4; stroke:none;" d="M598.667 596.333L599.333 596.667L598.667 596.333z"/>
<path style="fill:#f19484; stroke:none;" d="M725 596L726 597L725 596z"/>
<path style="fill:#ec6e5a; stroke:none;" d="M575 597L576 598L575 597z"/>
<path style="fill:#f19484; stroke:none;" d="M582 597L583 598L582 597z"/>
<path style="fill:#ec6e5a; stroke:none;" d="M599 597L600 598L599 597z"/>
<path style="fill:#f19484; stroke:none;" d="M600 597L601 598L600 597z"/>
<path style="fill:#f7beb4; stroke:none;" d="M601 597L602 598L601 597z"/>
<path style="fill:#f19484; stroke:none;" d="M724 597L725 598L724 597M575 598L576 599L575 598z"/>
<path style="fill:#f7beb4; stroke:none;" d="M581 598L582 599L581 598z"/>
<path style="fill:#ec6e5a; stroke:none;" d="M582 598L583 599L582 598M602 598L603 599L602 598z"/>
<path style="fill:#f7beb4; stroke:none;" d="M603 598L604 599L603 598z"/>
<path style="fill:#f19484; stroke:none;" d="M723 598L724 599L723 598z"/>
<path style="fill:#ec6e5a; stroke:none;" d="M574 599L575 600L574 599z"/>
<path style="fill:#f7beb4; stroke:none;" d="M575 599L576 600L575 599z"/>
<path style="fill:#f19484; stroke:none;" d="M581 599L582 600L581 599z"/>
<path style="fill:#ec6e5a; stroke:none;" d="M604 599L605 600L604 599z"/>
<path style="fill:#f7beb4; stroke:none;" d="M605 599L606 600L605 599z"/>
<path style="fill:#f19484; stroke:none;" d="M722 599L723 600L722 599M574 600L575 601L574 600z"/>
<path style="fill:#f7beb4; stroke:none;" d="M580 600L579 604L580 604L580 600z"/>
<path style="fill:#ec6e5a; stroke:none;" d="M581 600L582 601L581 600M606 600L607 601L606 600z"/>
<path style="fill:#f7beb4; stroke:none;" d="M607 600L608 601L607 600z"/>
<path style="fill:#f19484; stroke:none;" d="M721 600L722 601L721 600z"/>
<path style="fill:#ec6e5a; stroke:none;" d="M573 601L574 602L573 601z"/>
<path style="fill:#f7beb4; stroke:none;" d="M574 601L575 602L574 601z"/>
<path style="fill:#f19484; stroke:none;" d="M608 601L609 602L608 601M720 601L721 602L720 601M573 602L574 603L573 602M580 602L581 603L580 602z"/>
<path style="fill:#ec6e5a; stroke:none;" d="M609 602L610 603L609 602z"/>
<path style="fill:#f7beb4; stroke:none;" d="M610 602L611 603L610 602z"/>
<path style="fill:#f19484; stroke:none;" d="M719 602L720 603L719 602z"/>
<path style="fill:#f7beb4; stroke:none;" d="M573.333 603.667L573.667 604.333L573.333 603.667z"/>
<path style="fill:#f19484; stroke:none;" d="M611 603L612 604L611 603M718 603L719 604L718 603M572.333 604.667L572.667 605.333L572.333 604.667M579 604L580 605L579 604M612 604L613 605L612 604z"/>
<path style="fill:#f7beb4; stroke:none;" d="M613 604L615 606L613 604z"/>
<path style="fill:#f19484; stroke:none;" d="M717 604L718 605L717 604z"/>
<path style="fill:#f7beb4; stroke:none;" d="M578 605L579 606L578 605z"/>
<path style="fill:#ec6e5a; stroke:none;" d="M579 605L580 606L579 605M613 605L614 606L613 605z"/>
<path style="fill:#f19484; stroke:none;" d="M716 605L717 606L716 605z"/>
<path style="fill:#ec6e5a; stroke:none;" d="M571 606L572 607L571 606z"/>
<path style="fill:#f7beb4; stroke:none;" d="M572 606L573 607L572 606z"/>
<path style="fill:#f19484; stroke:none;" d="M578 606L579 607L578 606z"/>
<path style="fill:#ec6e5a; stroke:none;" d="M614 606L615 607L614 606z"/>
<path style="fill:#f19484; stroke:none;" d="M615 606L616 607L615 606M715 606L716 607L715 606M571 607L572 608L571 607z"/>
<path style="fill:#f7beb4; stroke:none;" d="M577 607L578 608L577 607z"/>
<path style="fill:#ec6e5a; stroke:none;" d="M578 607L579 608L578 607z"/>
<path style="fill:#f19484; stroke:none;" d="M616 607L617 608L616 607z"/>
<path style="fill:#f7beb4; stroke:none;" d="M617 607L637 627L617 607z"/>
<path style="fill:#f19484; stroke:none;" d="M714 607L715 608L714 607z"/>
<path style="fill:#ec6e5a; stroke:none;" d="M570 608L571 609L570 608z"/>
<path style="fill:#f7beb4; stroke:none;" d="M571 608L572 609L571 608z"/>
<path style="fill:#f19484; stroke:none;" d="M577 608L578 609L577 608z"/>
<path style="fill:#ec6e5a; stroke:none;" d="M617 608L618 609L617 608z"/>
<path style="fill:#f19484; stroke:none;" d="M713 608L714 609L713 608M570 609L571 610L570 609z"/>
<path style="fill:#f7beb4; stroke:none;" d="M576 609L575 613L576 613L576 609z"/>
<path style="fill:#ec6e5a; stroke:none;" d="M577 609L578 610L577 609M618 609L619 610L618 609z"/>
<path style="fill:#f19484; stroke:none;" d="M712 609L713 610L712 609z"/>
<path style="fill:#ec6e5a; stroke:none;" d="M569 610L570 611L569 610z"/>
<path style="fill:#f7beb4; stroke:none;" d="M570 610L571 611L570 610z"/>
<path style="fill:#ec6e5a; stroke:none;" d="M619 610L620 611L619 610z"/>
<path style="fill:#f19484; stroke:none;" d="M711 610L712 611L711 610M569 611L570 612L569 611M576 611L577 612L576 611z"/>
<path style="fill:#ec6e5a; stroke:none;" d="M620 611L621 612L620 611z"/>
<path style="fill:#f19484; stroke:none;" d="M710 611L711 612L710 611z"/>
<path style="fill:#f7beb4; stroke:none;" d="M569.333 612.667L569.667 613.333L569.333 612.667z"/>
<path style="fill:#ec6e5a; stroke:none;" d="M621 612L622 613L621 612z"/>
<path style="fill:#f19484; stroke:none;" d="M709 612L710 613L709 612z"/>
<path style="fill:#ec6e5a; stroke:none;" d="M568 613L569 614L568 613z"/>
<path style="fill:#f19484; stroke:none;" d="M575 613L576 614L575 613z"/>
<path style="fill:#ec6e5a; stroke:none;" d="M622 613L623 614L622 613z"/>
<path style="fill:#f19484; stroke:none;" d="M708 613L709 614L708 613M568 614L569 615L568 614z"/>
<path style="fill:#f7beb4; stroke:none;" d="M574 614L575 615L574 614z"/>
<path style="fill:#ec6e5a; stroke:none;" d="M575 614L576 615L575 614M623 614L624 615L623 614z"/>
<path style="fill:#f19484; stroke:none;" d="M707 614L708 615L707 614z"/>
<path style="fill:#ec6e5a; stroke:none;" d="M567 615L568 616L567 615z"/>
<path style="fill:#f7beb4; stroke:none;" d="M568 615L569 616L568 615z"/>
<path style="fill:#f19484; stroke:none;" d="M574 615L575 616L574 615z"/>
<path style="fill:#ec6e5a; stroke:none;" d="M624 615L625 616L624 615z"/>
<path style="fill:#f19484; stroke:none;" d="M706 615L707 616L706 615M567 616L568 617L567 616z"/>
<path style="fill:#f7beb4; stroke:none;" d="M573 616L572 620L573 620L573 616z"/>
<path style="fill:#ec6e5a; stroke:none;" d="M574 616L575 617L574 616M625 616L626 617L625 616z"/>
<path style="fill:#f19484; stroke:none;" d="M705 616L706 617L705 616z"/>
<path style="fill:#ec6e5a; stroke:none;" d="M566 617L567 618L566 617z"/>
<path style="fill:#f7beb4; stroke:none;" d="M567 617L568 618L567 617z"/>
<path style="fill:#ec6e5a; stroke:none;" d="M626 617L627 618L626 617z"/>
<path style="fill:#f19484; stroke:none;" d="M704 617L705 618L704 617M566 618L567 619L566 618z"/>
<path style="fill:#ec6e5a; stroke:none;" d="M573 618L574 619L573 618M627 618L628 619L627 618M703 618L704 619L703 618M565 619L566 620L565 619z"/>
<path style="fill:#f7beb4; stroke:none;" d="M566.333 619.667L566.667 620.333L566.333 619.667z"/>
<path style="fill:#ec6e5a; stroke:none;" d="M628 619L629 620L628 619M702 619L703 620L702 619z"/>
<path style="fill:#f19484; stroke:none;" d="M565.333 620.667L565.667 621.333L565.333 620.667M572 620L573 621L572 620z"/>
<path style="fill:#ec6e5a; stroke:none;" d="M629 620L630 621L629 620M701 620L702 621L701 620z"/>
<path style="fill:#f7beb4; stroke:none;" d="M571 621L572 622L571 621z"/>
<path style="fill:#ec6e5a; stroke:none;" d="M572 621L573 622L572 621M630 621L631 622L630 621M700 621L701 622L700 621M564 622L565 623L564 622z"/>
<path style="fill:#f7beb4; stroke:none;" d="M565 622L566 623L565 622z"/>
<path style="fill:#f19484; stroke:none;" d="M571 622L572 623L571 622z"/>
<path style="fill:#ec6e5a; stroke:none;" d="M631 622L632 623L631 622M699 622L700 623L699 622z"/>
<path style="fill:#f19484; stroke:none;" d="M564 623L565 624L564 623z"/>
<path style="fill:#f7beb4; stroke:none;" d="M570 623L571 624L570 623z"/>
<path style="fill:#ec6e5a; stroke:none;" d="M571 623L572 624L571 623M632 623L633 624L632 623M698 623L699 624L698 623M563 624L564 625L563 624z"/>
<path style="fill:#f7beb4; stroke:none;" d="M564 624L565 625L564 624z"/>
<path style="fill:#f19484; stroke:none;" d="M570 624L571 625L570 624z"/>
<path style="fill:#ec6e5a; stroke:none;" d="M633 624L634 625L633 624M697 624L698 625L697 624z"/>
<path style="fill:#f19484; stroke:none;" d="M563 625L564 626L563 625z"/>
<path style="fill:#f7beb4; stroke:none;" d="M569 625L568 629L569 629L569 625z"/>
<path style="fill:#ec6e5a; stroke:none;" d="M570 625L571 626L570 625M634 625L635 626L634 625M696 625L697 626L696 625M562 626L563 627L562 626z"/>
<path style="fill:#f7beb4; stroke:none;" d="M563 626L564 627L563 626z"/>
<path style="fill:#ec6e5a; stroke:none;" d="M635 626L636 627L635 626M695 626L696 627L695 626z"/>
<path style="fill:#f19484; stroke:none;" d="M562 627L563 628L562 627M569 627L570 628L569 627M636 627L637 628L636 627z"/>
<path style="fill:#ec6e5a; stroke:none;" d="M694 627L695 628L694 627z"/>
<path style="fill:#f7beb4; stroke:none;" d="M562.333 628.667L562.667 629.333L562.333 628.667z"/>
<path style="fill:#f19484; stroke:none;" d="M637 628L638 629L637 628z"/>
<path style="fill:#ec6e5a; stroke:none;" d="M693 628L694 629L693 628M561 629L562 630L561 629z"/>
<path style="fill:#f19484; stroke:none;" d="M568 629L569 630L568 629z"/>
<path style="fill:#ec6e5a; stroke:none;" d="M637 629L640 632L637 629z"/>
<path style="fill:#f7beb4; stroke:none;" d="M638 629L639 630L638 629z"/>
<path style="fill:#ec6e5a; stroke:none;" d="M692 629L693 630L692 629z"/>
<path style="fill:#f19484; stroke:none;" d="M561 630L562 631L561 630z"/>
<path style="fill:#f7beb4; stroke:none;" d="M567 630L568 631L567 630z"/>
<path style="fill:#ec6e5a; stroke:none;" d="M568 630L569 631L568 630z"/>
<path style="fill:#f7beb4; stroke:none;" d="M639 630L640 631L639 630z"/>
<path style="fill:#ec6e5a; stroke:none;" d="M691 630L692 631L691 630M560 631L561 632L560 631z"/>
<path style="fill:#f7beb4; stroke:none;" d="M561 631L562 632L561 631z"/>
<path style="fill:#f19484; stroke:none;" d="M567 631L568 632L567 631z"/>
<path style="fill:#f7beb4; stroke:none;" d="M640 631L641 632L640 631z"/>
<path style="fill:#ec6e5a; stroke:none;" d="M690 631L691 632L690 631z"/>
<path style="fill:#f19484; stroke:none;" d="M560 632L561 633L560 632z"/>
<path style="fill:#f7beb4; stroke:none;" d="M566 632L565 636L566 636L566 632z"/>
<path style="fill:#ec6e5a; stroke:none;" d="M567 632L568 633L567 632z"/>
<path style="fill:#f19484; stroke:none;" d="M640 632L641 633L640 632z"/>
<path style="fill:#ec6e5a; stroke:none;" d="M689 632L690 633L689 632M559 633L560 634L559 633z"/>
<path style="fill:#f7beb4; stroke:none;" d="M560 633L561 634L560 633z"/>
<path style="fill:#f19484; stroke:none;" d="M641 633L642 634L641 633z"/>
<path style="fill:#ec6e5a; stroke:none;" d="M688 633L689 634L688 633z"/>
<path style="fill:#f19484; stroke:none;" d="M559 634L560 635L559 634z"/>
<path style="fill:#ec6e5a; stroke:none;" d="M566 634L567 635L566 634M641 634L642 635L641 634z"/>
<path style="fill:#f7beb4; stroke:none;" d="M642 634L644 636L642 634z"/>
<path style="fill:#ec6e5a; stroke:none;" d="M687 634L688 635L687 634M558 635L559 636L558 635z"/>
<path style="fill:#f7beb4; stroke:none;" d="M559.333 635.667L559.667 636.333L559.333 635.667z"/>
<path style="fill:#f19484; stroke:none;" d="M642 635L643 636L642 635z"/>
<path style="fill:#ec6e5a; stroke:none;" d="M686 635L687 636L686 635z"/>
<path style="fill:#f19484; stroke:none;" d="M558.333 636.667L558.667 637.333L558.333 636.667M565 636L566 637L565 636M643 636L644 637L643 636z"/>
<path style="fill:#ec6e5a; stroke:none;" d="M685 636L686 637L685 636z"/>
<path style="fill:#f7beb4; stroke:none;" d="M564 637L565 638L564 637z"/>
<path style="fill:#ec6e5a; stroke:none;" d="M565 637L566 638L565 637M643 637L644 638L643 637z"/>
<path style="fill:#f7beb4; stroke:none;" d="M644 637L645 638L644 637z"/>
<path style="fill:#ec6e5a; stroke:none;" d="M684 637L685 638L684 637M557 638L558 639L557 638z"/>
<path style="fill:#f7beb4; stroke:none;" d="M558 638L559 639L558 638z"/>
<path style="fill:#f19484; stroke:none;" d="M564 638L565 639L564 638M644 638L645 639L644 638z"/>
<path style="fill:#ec6e5a; stroke:none;" d="M683 638L684 639L683 638z"/>
<path style="fill:#f19484; stroke:none;" d="M557 639L558 640L557 639z"/>
<path style="fill:#f7beb4; stroke:none;" d="M563 639L564 640L563 639z"/>
<path style="fill:#ec6e5a; stroke:none;" d="M564 639L565 640L564 639M644 639L645 640L644 639z"/>
<path style="fill:#f7beb4; stroke:none;" d="M645 639L646 640L645 639z"/>
<path style="fill:#ec6e5a; stroke:none;" d="M682 639L683 640L682 639M556 640L557 641L556 640z"/>
<path style="fill:#f7beb4; stroke:none;" d="M557 640L558 641L557 640z"/>
<path style="fill:#f19484; stroke:none;" d="M563 640L564 641L563 640M645 640L646 641L645 640z"/>
<path style="fill:#ec6e5a; stroke:none;" d="M681 640L682 641L681 640z"/>
<path style="fill:#f19484; stroke:none;" d="M556 641L557 642L556 641z"/>
<path style="fill:#f7beb4; stroke:none;" d="M562 641L561 645L562 645L562 641z"/>
<path style="fill:#ec6e5a; stroke:none;" d="M563 641L564 642L563 641M645 641L646 642L645 641z"/>
<path style="fill:#f7beb4; stroke:none;" d="M646 641L647 642L646 641z"/>
<path style="fill:#ec6e5a; stroke:none;" d="M680 641L681 642L680 641M555 642L556 643L555 642z"/>
<path style="fill:#f7beb4; stroke:none;" d="M556 642L557 643L556 642z"/>
<path style="fill:#f19484; stroke:none;" d="M646 642L647 643L646 642z"/>
<path style="fill:#ec6e5a; stroke:none;" d="M679 642L680 643L679 642z"/>
<path style="fill:#f19484; stroke:none;" d="M555 643L556 644L555 643M562 643L563 644L562 643z"/>
<path style="fill:#ec6e5a; stroke:none;" d="M646 643L647 644L646 643z"/>
<path style="fill:#f7beb4; stroke:none;" d="M647.333 643.667L647.667 644.333L647.333 643.667z"/>
<path style="fill:#ec6e5a; stroke:none;" d="M678 643L679 644L678 643z"/>
<path style="fill:#f7beb4; stroke:none;" d="M555.333 644.667L555.667 645.333L555.333 644.667z"/>
<path style="fill:#ec6e5a; stroke:none;" d="M677 644L678 645L677 644M554 645L555 646L554 645z"/>
<path style="fill:#f19484; stroke:none;" d="M561 645L562 646L561 645M647 645L648 646L647 645z"/>
<path style="fill:#ec6e5a; stroke:none;" d="M676 645L677 646L676 645z"/>
<path style="fill:#f19484; stroke:none;" d="M554 646L555 647L554 646z"/>
<path style="fill:#f7beb4; stroke:none;" d="M560 646L561 647L560 646z"/>
<path style="fill:#ec6e5a; stroke:none;" d="M561 646L562 647L561 646M647.333 646.667L647.667 647.333L647.333 646.667z"/>
<path style="fill:#f7beb4; stroke:none;" d="M648.333 646.667L648.667 647.333L648.333 646.667z"/>
<path style="fill:#ec6e5a; stroke:none;" d="M675 646L676 647L675 646M553 647L554 648L553 647z"/>
<path style="fill:#f7beb4; stroke:none;" d="M554 647L555 648L554 647z"/>
<path style="fill:#f19484; stroke:none;" d="M560 647L561 648L560 647z"/>
<path style="fill:#ec6e5a; stroke:none;" d="M674 647L675 648L674 647z"/>
<path style="fill:#f19484; stroke:none;" d="M553 648L554 649L553 648z"/>
<path style="fill:#f7beb4; stroke:none;" d="M559 648L560 649L559 648z"/>
<path style="fill:#ec6e5a; stroke:none;" d="M560 648L561 649L560 648z"/>
<path style="fill:#f19484; stroke:none;" d="M648.333 648.667L648.667 649.333L648.333 648.667z"/>
<path style="fill:#ec6e5a; stroke:none;" d="M673 648L674 649L673 648M552 649L553 650L552 649z"/>
<path style="fill:#f7beb4; stroke:none;" d="M553 649L554 650L553 649z"/>
<path style="fill:#f19484; stroke:none;" d="M559 649L560 650L559 649z"/>
<path style="fill:#ec6e5a; stroke:none;" d="M672 649L673 650L672 649z"/>
<path style="fill:#f19484; stroke:none;" d="M552 650L553 651L552 650z"/>
<path style="fill:#f7beb4; stroke:none;" d="M558.333 650.667L558.667 651.333L558.333 650.667z"/>
<path style="fill:#ec6e5a; stroke:none;" d="M559 650L560 651L559 650M648 650L649 651L648 650z"/>
<path style="fill:#f7beb4; stroke:none;" d="M649 650L650 651L649 650z"/>
<path style="fill:#ec6e5a; stroke:none;" d="M671 650L672 651L671 650M551 651L552 652L551 651z"/>
<path style="fill:#f7beb4; stroke:none;" d="M552.333 651.667L552.667 652.333L552.333 651.667z"/>
<path style="fill:#f19484; stroke:none;" d="M649.333 651.667L649.667 652.333L649.333 651.667z"/>
<path style="fill:#ec6e5a; stroke:none;" d="M670 651L671 652L670 651z"/>
<path style="fill:#f19484; stroke:none;" d="M551.333 652.667L551.667 653.333L551.333 652.667M558 652L559 653L558 652z"/>
<path style="fill:#ec6e5a; stroke:none;" d="M669 652L670 653L669 652z"/>
<path style="fill:#f7beb4; stroke:none;" d="M557 653L558 654L557 653z"/>
<path style="fill:#ec6e5a; stroke:none;" d="M558 653L559 654L558 653M649.333 653.667L649.667 654.333L649.333 653.667z"/>
<path style="fill:#f7beb4; stroke:none;" d="M650.333 653.667L650.667 654.333L650.333 653.667z"/>
<path style="fill:#ec6e5a; stroke:none;" d="M668 653L669 654L668 653M550 654L551 655L550 654z"/>
<path style="fill:#f7beb4; stroke:none;" d="M551 654L552 655L551 654z"/>
<path style="fill:#f19484; stroke:none;" d="M557 654L558 655L557 654z"/>
<path style="fill:#ec6e5a; stroke:none;" d="M667 654L668 655L667 654z"/>
<path style="fill:#f19484; stroke:none;" d="M550 655L551 656L550 655z"/>
<path style="fill:#f7beb4; stroke:none;" d="M556 655L557 656L556 655z"/>
<path style="fill:#ec6e5a; stroke:none;" d="M557 655L558 656L557 655z"/>
<path style="fill:#f19484; stroke:none;" d="M650.333 655.667L650.667 656.333L650.333 655.667z"/>
<path style="fill:#ec6e5a; stroke:none;" d="M666 655L667 656L666 655M549 656L550 657L549 656z"/>
<path style="fill:#f7beb4; stroke:none;" d="M550 656L551 657L550 656z"/>
<path style="fill:#f19484; stroke:none;" d="M556 656L557 657L556 656z"/>
<path style="fill:#ec6e5a; stroke:none;" d="M665 656L666 657L665 656z"/>
<path style="fill:#f19484; stroke:none;" d="M549 657L550 658L549 657z"/>
<path style="fill:#f7beb4; stroke:none;" d="M555 657L554 661L555 661L555 657z"/>
<path style="fill:#ec6e5a; stroke:none;" d="M556 657L557 658L556 657M650.333 657.667L650.667 658.333L650.333 657.667z"/>
<path style="fill:#f7beb4; stroke:none;" d="M651.333 657.667L651.667 658.333L651.333 657.667z"/>
<path style="fill:#ec6e5a; stroke:none;" d="M664 657L665 658L664 657M548 658L549 659L548 658z"/>
<path style="fill:#f7beb4; stroke:none;" d="M549 658L550 659L549 658z"/>
<path style="fill:#ec6e5a; stroke:none;" d="M663 658L664 659L663 658z"/>
<path style="fill:#f19484; stroke:none;" d="M548 659L549 660L548 659M555 659L556 660L555 659M651.333 659.667L651.667 660.333L651.333 659.667z"/>
<path style="fill:#ec6e5a; stroke:none;" d="M662 659L663 660L662 659z"/>
<path style="fill:#f7beb4; stroke:none;" d="M548.333 660.667L548.667 661.333L548.333 660.667z"/>
<path style="fill:#ec6e5a; stroke:none;" d="M650 660L651 661L650 660M661 660L662 661L661 660M547 661L548 662L547 661z"/>
<path style="fill:#f19484; stroke:none;" d="M554 661L555 662L554 661z"/>
<path style="fill:#ec6e5a; stroke:none;" d="M648 661L649 662L648 661z"/>
<path style="fill:#f19484; stroke:none;" d="M649 661L650 662L649 661z"/>
<path style="fill:#ec6e5a; stroke:none;" d="M660 661L661 662L660 661z"/>
<path style="fill:#f19484; stroke:none;" d="M547 662L548 663L547 662z"/>
<path style="fill:#f7beb4; stroke:none;" d="M553 662L554 663L553 662z"/>
<path style="fill:#ec6e5a; stroke:none;" d="M554 662L555 663L554 662M646 662L647 663L646 662z"/>
<path style="fill:#f7beb4; stroke:none;" d="M647 662L648 663L647 662z"/>
<path style="fill:#ec6e5a; stroke:none;" d="M659 662L660 663L659 662M546 663L547 664L546 663z"/>
<path style="fill:#f7beb4; stroke:none;" d="M547 663L548 664L547 663z"/>
<path style="fill:#f19484; stroke:none;" d="M553 663L554 664L553 663z"/>
<path style="fill:#ec6e5a; stroke:none;" d="M643 663L644 664L643 663z"/>
<path style="fill:#f19484; stroke:none;" d="M644 663L645 664L644 663z"/>
<path style="fill:#f7beb4; stroke:none;" d="M645 663L646 664L645 663z"/>
<path style="fill:#ec6e5a; stroke:none;" d="M658 663L659 664L658 663z"/>
<path style="fill:#f19484; stroke:none;" d="M546 664L547 665L546 664z"/>
<path style="fill:#f7beb4; stroke:none;" d="M552 664L553 665L552 664z"/>
<path style="fill:#ec6e5a; stroke:none;" d="M553 664L554 665L553 664M641 664L642 665L641 664z"/>
<path style="fill:#f19484; stroke:none;" d="M642 664L643 665L642 664z"/>
<path style="fill:#f7beb4; stroke:none;" d="M643 664L644 665L643 664z"/>
<path style="fill:#ec6e5a; stroke:none;" d="M657 664L658 665L657 664M545 665L546 666L545 665z"/>
<path style="fill:#f7beb4; stroke:none;" d="M546 665L547 666L546 665z"/>
<path style="fill:#f19484; stroke:none;" d="M552 665L553 666L552 665z"/>
<path style="fill:#ec6e5a; stroke:none;" d="M639 665L640 666L639 665z"/>
<path style="fill:#f7beb4; stroke:none;" d="M640 665L641 666L640 665M654 665L655 666L654 665z"/>
<path style="fill:#f19484; stroke:none;" d="M655 665L656 666L655 665M545 666L546 667L545 666z"/>
<path style="fill:#f7beb4; stroke:none;" d="M551 666L551 671L552 671L551 666z"/>
<path style="fill:#ec6e5a; stroke:none;" d="M552 666L553 667L552 666M636 666L637 667L636 666z"/>
<path style="fill:#f19484; stroke:none;" d="M637 666L638 667L637 666z"/>
<path style="fill:#f7beb4; stroke:none;" d="M638 666L639 667L638 666M652 666L653 667L652 666z"/>
<path style="fill:#ec6e5a; stroke:none;" d="M653 666L654 667L653 666M544 667L545 668L544 667z"/>
<path style="fill:#f7beb4; stroke:none;" d="M545.333 667.667L545.667 668.333L545.333 667.667z"/>
<path style="fill:#ec6e5a; stroke:none;" d="M634 667L635 668L634 667z"/>
<path style="fill:#f19484; stroke:none;" d="M635 667L636 668L635 667z"/>
<path style="fill:#f7beb4; stroke:none;" d="M636 667L637 668L636 667M649 667L650 668L649 667z"/>
<path style="fill:#f19484; stroke:none;" d="M650 667L651 668L650 667z"/>
<path style="fill:#ec6e5a; stroke:none;" d="M651 667L652 668L651 667z"/>
<path style="fill:#f19484; stroke:none;" d="M544.333 668.667L544.667 669.333L544.333 668.667M551 668L552 669L551 668z"/>
<path style="fill:#ec6e5a; stroke:none;" d="M632 668L633 669L632 668z"/>
<path style="fill:#f19484; stroke:none;" d="M633 668L634 669L633 668z"/>
<path style="fill:#f7beb4; stroke:none;" d="M647 668L648 669L647 668z"/>
<path style="fill:#f19484; stroke:none;" d="M648 668L649 669L648 668z"/>
<path style="fill:#ec6e5a; stroke:none;" d="M551 669L552 670L551 669M630 669L631 670L630 669z"/>
<path style="fill:#f7beb4; stroke:none;" d="M631 669L632 670L631 669M645 669L646 670L645 669z"/>
<path style="fill:#ec6e5a; stroke:none;" d="M646 669L647 670L646 669M543 670L544 671L543 670z"/>
<path style="fill:#f7beb4; stroke:none;" d="M544 670L545 671L544 670z"/>
<path style="fill:#ec6e5a; stroke:none;" d="M552 670L553 671L552 670M627 670L628 671L627 670z"/>
<path style="fill:#f19484; stroke:none;" d="M628 670L629 671L628 670z"/>
<path style="fill:#f7beb4; stroke:none;" d="M629 670L630 671L629 670M642 670L643 671L642 670z"/>
<path style="fill:#f19484; stroke:none;" d="M643 670L644 671L643 670z"/>
<path style="fill:#ec6e5a; stroke:none;" d="M644 670L645 671L644 670z"/>
<path style="fill:#f19484; stroke:none;" d="M543 671L544 672L543 671z"/>
<path style="fill:#f7beb4; stroke:none;" d="M553 671L554 672L553 671z"/>
<path style="fill:#ec6e5a; stroke:none;" d="M554 671L555 672L554 671M625 671L626 672L625 671z"/>
<path style="fill:#f19484; stroke:none;" d="M626 671L627 672L626 671z"/>
<path style="fill:#f7beb4; stroke:none;" d="M627 671L628 672L627 671M640 671L641 672L640 671z"/>
<path style="fill:#f19484; stroke:none;" d="M641 671L642 672L641 671z"/>
<path style="fill:#ec6e5a; stroke:none;" d="M542 672L543 673L542 672z"/>
<path style="fill:#f7beb4; stroke:none;" d="M543 672L544 673L543 672M555 672L556 673L555 672z"/>
<path style="fill:#ec6e5a; stroke:none;" d="M556 672L557 673L556 672M623 672L624 673L623 672z"/>
<path style="fill:#f7beb4; stroke:none;" d="M624 672L625 673L624 672M638 672L639 673L638 672z"/>
<path style="fill:#f19484; stroke:none;" d="M639 672L640 673L639 672M542 673L543 674L542 673z"/>
<path style="fill:#f7beb4; stroke:none;" d="M557 673L558 674L557 673z"/>
<path style="fill:#ec6e5a; stroke:none;" d="M558 673L559 674L558 673M620 673L621 674L620 673z"/>
<path style="fill:#f19484; stroke:none;" d="M621 673L622 674L621 673z"/>
<path style="fill:#f7beb4; stroke:none;" d="M622 673L623 674L622 673M636 673L637 674L636 673z"/>
<path style="fill:#ec6e5a; stroke:none;" d="M637 673L638 674L637 673M541 674L542 675L541 674z"/>
<path style="fill:#f7beb4; stroke:none;" d="M542 674L543 675L542 674z"/>
<path style="fill:#f19484; stroke:none;" d="M559 674L560 675L559 674z"/>
<path style="fill:#ec6e5a; stroke:none;" d="M560 674L561 675L560 674M618 674L619 675L618 674z"/>
<path style="fill:#f19484; stroke:none;" d="M619 674L620 675L619 674z"/>
<path style="fill:#f7beb4; stroke:none;" d="M620 674L621 675L620 674M633 674L634 675L633 674z"/>
<path style="fill:#f19484; stroke:none;" d="M634 674L635 675L634 674z"/>
<path style="fill:#ec6e5a; stroke:none;" d="M635 674L636 675L635 674z"/>
<path style="fill:#f19484; stroke:none;" d="M541 675L542 676L541 675z"/>
<path style="fill:#f7beb4; stroke:none;" d="M560 675L561 676L560 675z"/>
<path style="fill:#f19484; stroke:none;" d="M561 675L562 676L561 675z"/>
<path style="fill:#ec6e5a; stroke:none;" d="M616 675L617 676L616 675z"/>
<path style="fill:#f19484; stroke:none;" d="M617 675L618 676L617 675z"/>
<path style="fill:#f7beb4; stroke:none;" d="M631 675L632 676L631 675z"/>
<path style="fill:#f19484; stroke:none;" d="M632 675L633 676L632 675z"/>
<path style="fill:#f7beb4; stroke:none;" d="M541.333 676.667L541.667 677.333L541.333 676.667M562 676L564 678L562 676z"/>
<path style="fill:#ec6e5a; stroke:none;" d="M563 676L564 677L563 676M614 676L615 677L614 676z"/>
<path style="fill:#f7beb4; stroke:none;" d="M615 676L616 677L615 676M629 676L630 677L629 676z"/>
<path style="fill:#ec6e5a; stroke:none;" d="M630 676L631 677L630 676M540 677L541 678L540 677z"/>
<path style="fill:#f19484; stroke:none;" d="M564 677L565 678L564 677z"/>
<path style="fill:#ec6e5a; stroke:none;" d="M611 677L612 678L611 677z"/>
<path style="fill:#f19484; stroke:none;" d="M612 677L613 678L612 677z"/>
<path style="fill:#f7beb4; stroke:none;" d="M613 677L614 678L613 677M626 677L627 678L626 677z"/>
<path style="fill:#f19484; stroke:none;" d="M627 677L628 678L627 677z"/>
<path style="fill:#ec6e5a; stroke:none;" d="M628 677L629 678L628 677z"/>
<path style="fill:#f19484; stroke:none;" d="M540 678L541 679L540 678M565 678L566 679L565 678z"/>
<path style="fill:#ec6e5a; stroke:none;" d="M609 678L610 679L609 678z"/>
<path style="fill:#f19484; stroke:none;" d="M610 678L611 679L610 678z"/>
<path style="fill:#f7beb4; stroke:none;" d="M611 678L612 679L611 678M624 678L625 679L624 678z"/>
<path style="fill:#f19484; stroke:none;" d="M625 678L626 679L625 678z"/>
<path style="fill:#ec6e5a; stroke:none;" d="M539 679L540 680L539 679z"/>
<path style="fill:#f7beb4; stroke:none;" d="M540 679L541 680L540 679z"/>
<path style="fill:#f19484; stroke:none;" d="M566 679L568 681L566 679z"/>
<path style="fill:#ec6e5a; stroke:none;" d="M607 679L608 680L607 679z"/>
<path style="fill:#f7beb4; stroke:none;" d="M608 679L609 680L608 679M622 679L623 680L622 679z"/>
<path style="fill:#ec6e5a; stroke:none;" d="M623 679L624 680L623 679z"/>
<path style="fill:#f19484; stroke:none;" d="M539 680L540 681L539 680z"/>
<path style="fill:#f7beb4; stroke:none;" d="M566 680L567 681L566 680z"/>
<path style="fill:#ec6e5a; stroke:none;" d="M604 680L605 681L604 680z"/>
<path style="fill:#f19484; stroke:none;" d="M605 680L606 681L605 680z"/>
<path style="fill:#f7beb4; stroke:none;" d="M606 680L607 681L606 680M620 680L621 681L620 680z"/>
<path style="fill:#ec6e5a; stroke:none;" d="M621 680L622 681L621 680M538 681L539 682L538 681z"/>
<path style="fill:#f7beb4; stroke:none;" d="M539 681L540 682L539 681M567 681L569 683L567 681z"/>
<path style="fill:#ec6e5a; stroke:none;" d="M568 681L569 682L568 681M602 681L603 682L602 681z"/>
<path style="fill:#f19484; stroke:none;" d="M603 681L604 682L603 681z"/>
<path style="fill:#f7beb4; stroke:none;" d="M604 681L605 682L604 681M617 681L618 682L617 681z"/>
<path style="fill:#f19484; stroke:none;" d="M618 681L619 682L618 681z"/>
<path style="fill:#ec6e5a; stroke:none;" d="M619 681L620 682L619 681z"/>
<path style="fill:#f19484; stroke:none;" d="M538 682L539 683L538 682z"/>
<path style="fill:#ec6e5a; stroke:none;" d="M600 682L601 683L600 682z"/>
<path style="fill:#f19484; stroke:none;" d="M601 682L602 683L601 682z"/>
<path style="fill:#f7beb4; stroke:none;" d="M615 682L616 683L615 682z"/>
<path style="fill:#f19484; stroke:none;" d="M616 682L617 683L616 682z"/>
<path style="fill:#ec6e5a; stroke:none;" d="M537 683L538 684L537 683z"/>
<path style="fill:#f7beb4; stroke:none;" d="M538.333 683.667L538.667 684.333L538.333 683.667z"/>
<path style="fill:#f19484; stroke:none;" d="M569 683L570 684L569 683z"/>
<path style="fill:#ec6e5a; stroke:none;" d="M598 683L599 684L598 683z"/>
<path style="fill:#f7beb4; stroke:none;" d="M599 683L600 684L599 683M613 683L614 684L613 683z"/>
<path style="fill:#ec6e5a; stroke:none;" d="M614 683L615 684L614 683z"/>
<path style="fill:#f19484; stroke:none;" d="M537.333 684.667L537.667 685.333L537.333 684.667z"/>
<path style="fill:#f7beb4; stroke:none;" d="M569 684L570 685L569 684z"/>
<path style="fill:#ec6e5a; stroke:none;" d="M570 684L571 685L570 684M595 684L596 685L595 684z"/>
<path style="fill:#f19484; stroke:none;" d="M596 684L597 685L596 684z"/>
<path style="fill:#f7beb4; stroke:none;" d="M597 684L598 685L597 684M610 684L611 685L610 684z"/>
<path style="fill:#f19484; stroke:none;" d="M611 684L612 685L611 684z"/>
<path style="fill:#ec6e5a; stroke:none;" d="M612 684L613 685L612 684z"/>
<path style="fill:#f19484; stroke:none;" d="M570 685L571 686L570 685z"/>
<path style="fill:#ec6e5a; stroke:none;" d="M593 685L594 686L593 685z"/>
<path style="fill:#f19484; stroke:none;" d="M594 685L595 686L594 685z"/>
<path style="fill:#f7beb4; stroke:none;" d="M595 685L596 686L595 685M608 685L609 686L608 685z"/>
<path style="fill:#f19484; stroke:none;" d="M609 685L610 686L609 685z"/>
<path style="fill:#ec6e5a; stroke:none;" d="M536 686L537 687L536 686z"/>
<path style="fill:#f7beb4; stroke:none;" d="M537 686L538 687L537 686M570 686L571 687L570 686z"/>
<path style="fill:#ec6e5a; stroke:none;" d="M571 686L572 687L571 686M591 686L592 687L591 686z"/>
<path style="fill:#f7beb4; stroke:none;" d="M592 686L593 687L592 686M606 686L607 687L606 686z"/>
<path style="fill:#ec6e5a; stroke:none;" d="M607 686L608 687L607 686z"/>
<path style="fill:#f19484; stroke:none;" d="M536 687L537 688L536 687M571 687L572 688L571 687z"/>
<path style="fill:#ec6e5a; stroke:none;" d="M588 687L589 688L588 687z"/>
<path style="fill:#f19484; stroke:none;" d="M589 687L590 688L589 687z"/>
<path style="fill:#f7beb4; stroke:none;" d="M590 687L591 688L590 687M604 687L605 688L604 687z"/>
<path style="fill:#ec6e5a; stroke:none;" d="M605 687L606 688L605 687M535 688L536 689L535 688z"/>
<path style="fill:#f7beb4; stroke:none;" d="M536 688L537 689L536 688M571 688L572 689L571 688z"/>
<path style="fill:#ec6e5a; stroke:none;" d="M572 688L573 689L572 688M586 688L587 689L586 688z"/>
<path style="fill:#f19484; stroke:none;" d="M587 688L588 689L587 688z"/>
<path style="fill:#f7beb4; stroke:none;" d="M588 688L589 689L588 688M601 688L602 689L601 688z"/>
<path style="fill:#f19484; stroke:none;" d="M602 688L603 689L602 688z"/>
<path style="fill:#ec6e5a; stroke:none;" d="M603 688L604 689L603 688z"/>
<path style="fill:#f19484; stroke:none;" d="M535 689L536 690L535 689M572 689L573 690L572 689z"/>
<path style="fill:#ec6e5a; stroke:none;" d="M584 689L585 690L584 689z"/>
<path style="fill:#f19484; stroke:none;" d="M585 689L586 690L585 689z"/>
<path style="fill:#f7beb4; stroke:none;" d="M599 689L600 690L599 689z"/>
<path style="fill:#f19484; stroke:none;" d="M600 689L601 690L600 689z"/>
<path style="fill:#ec6e5a; stroke:none;" d="M534 690L535 691L534 690z"/>
<path style="fill:#f7beb4; stroke:none;" d="M535 690L536 691L535 690M572 690L573 691L572 690z"/>
<path style="fill:#ec6e5a; stroke:none;" d="M573 690L574 691L573 690M581.667 690.333L582.333 690.667L581.667 690.333z"/>
<path style="fill:#f7beb4; stroke:none;" d="M583 690L584 691L583 690M597 690L598 691L597 690z"/>
<path style="fill:#ec6e5a; stroke:none;" d="M598 690L599 691L598 690z"/>
<path style="fill:#f19484; stroke:none;" d="M534 691L535 692L534 691M573 691L574 692L573 691z"/>
<path style="fill:#ec6e5a; stroke:none;" d="M579 691L580 692L579 691z"/>
<path style="fill:#f19484; stroke:none;" d="M580 691L581 692L580 691z"/>
<path style="fill:#f7beb4; stroke:none;" d="M581 691L582 692L581 691M594 691L595 692L594 691z"/>
<path style="fill:#f19484; stroke:none;" d="M595 691L596 692L595 691z"/>
<path style="fill:#ec6e5a; stroke:none;" d="M596 691L597 692L596 691z"/>
<path style="fill:#f7beb4; stroke:none;" d="M534.333 692.667L534.667 693.333L534.333 692.667M573 692L575 694L573 692z"/>
<path style="fill:#ec6e5a; stroke:none;" d="M574 692L575 693L574 692M577 692L578 693L577 692z"/>
<path style="fill:#f19484; stroke:none;" d="M578 692L579 693L578 692z"/>
<path style="fill:#f7beb4; stroke:none;" d="M579 692L580 693L579 692M592 692L593 693L592 692z"/>
<path style="fill:#f19484; stroke:none;" d="M593 692L594 693L593 692z"/>
<path style="fill:#ec6e5a; stroke:none;" d="M533 693L534 694L533 693M575 693L576 694L575 693z"/>
<path style="fill:#f7beb4; stroke:none;" d="M576 693L577 694L576 693M590 693L591 694L590 693z"/>
<path style="fill:#ec6e5a; stroke:none;" d="M591 693L592 694L591 693z"/>
<path style="fill:#f19484; stroke:none;" d="M533 694L534 695L533 694z"/>
<path style="fill:#f7beb4; stroke:none;" d="M587.667 694.333L588.333 694.667L587.667 694.333z"/>
<path style="fill:#ec6e5a; stroke:none;" d="M589 694L590 695L589 694M532 695L533 696L532 695z"/>
<path style="fill:#f7beb4; stroke:none;" d="M533 695L534 696L533 695M585 695L586 696L585 695z"/>
<path style="fill:#f19484; stroke:none;" d="M586 695L587 696L586 695z"/>
<path style="fill:#ec6e5a; stroke:none;" d="M587 695L588 696L587 695z"/>
<path style="fill:#f19484; stroke:none;" d="M532 696L533 697L532 696z"/>
<path style="fill:#f7beb4; stroke:none;" d="M583 696L584 697L583 696z"/>
<path style="fill:#f19484; stroke:none;" d="M584 696L585 697L584 696z"/>
<path style="fill:#ec6e5a; stroke:none;" d="M531 697L532 698L531 697z"/>
<path style="fill:#f7beb4; stroke:none;" d="M532 697L533 698L532 697M581 697L582 698L581 697z"/>
<path style="fill:#ec6e5a; stroke:none;" d="M582 697L583 698L582 697z"/>
<path style="fill:#f19484; stroke:none;" d="M531 698L532 699L531 698z"/>
<path style="fill:#f7beb4; stroke:none;" d="M578 698L579 699L578 698z"/>
<path style="fill:#f19484; stroke:none;" d="M579 698L580 699L579 698z"/>
<path style="fill:#ec6e5a; stroke:none;" d="M580 698L581 699L580 698M530 699L531 700L530 699z"/>
<path style="fill:#f7beb4; stroke:none;" d="M531.333 699.667L531.667 700.333L531.333 699.667M576 699L577 700L576 699z"/>
<path style="fill:#f19484; stroke:none;" d="M577 699L578 700L577 699M530.333 700.667L530.667 701.333L530.333 700.667z"/>
<path style="fill:#f7beb4; stroke:none;" d="M574 700L575 701L574 700z"/>
<path style="fill:#ec6e5a; stroke:none;" d="M575 700L576 701L575 700z"/>
<path style="fill:#f7beb4; stroke:none;" d="M571 701L572 702L571 701z"/>
<path style="fill:#f19484; stroke:none;" d="M572 701L573 702L572 701z"/>
<path style="fill:#ec6e5a; stroke:none;" d="M573 701L574 702L573 701M529 702L530 703L529 702z"/>
<path style="fill:#f7beb4; stroke:none;" d="M530 702L531 703L530 702M569 702L570 703L569 702z"/>
<path style="fill:#f19484; stroke:none;" d="M570 702L571 703L570 702M529 703L530 704L529 703z"/>
<path style="fill:#f7beb4; stroke:none;" d="M567 703L568 704L567 703z"/>
<path style="fill:#f19484; stroke:none;" d="M568 703L569 704L568 703z"/>
<path style="fill:#ec6e5a; stroke:none;" d="M528 704L529 705L528 704z"/>
<path style="fill:#f7beb4; stroke:none;" d="M529 704L530 705L529 704M565 704L566 705L565 704z"/>
<path style="fill:#ec6e5a; stroke:none;" d="M566 704L567 705L566 704z"/>
<path style="fill:#f19484; stroke:none;" d="M528 705L529 706L528 705z"/>
<path style="fill:#f7beb4; stroke:none;" d="M562 705L563 706L562 705z"/>
<path style="fill:#f19484; stroke:none;" d="M563 705L564 706L563 705z"/>
<path style="fill:#ec6e5a; stroke:none;" d="M564 705L565 706L564 705M527 706L528 707L527 706z"/>
<path style="fill:#f7beb4; stroke:none;" d="M528 706L529 707L528 706M560 706L561 707L560 706z"/>
<path style="fill:#f19484; stroke:none;" d="M561 706L562 707L561 706M527 707L528 708L527 707z"/>
<path style="fill:#f7beb4; stroke:none;" d="M558 707L559 708L558 707z"/>
<path style="fill:#ec6e5a; stroke:none;" d="M559 707L560 708L559 707z"/>
<path style="fill:#f7beb4; stroke:none;" d="M527.333 708.667L527.667 709.333L527.333 708.667M555 708L556 709L555 708z"/>
<path style="fill:#f19484; stroke:none;" d="M556 708L557 709L556 708z"/>
<path style="fill:#ec6e5a; stroke:none;" d="M557 708L558 709L557 708M526 709L527 710L526 709z"/>
<path style="fill:#f7beb4; stroke:none;" d="M553 709L554 710L553 709z"/>
<path style="fill:#f19484; stroke:none;" d="M554 709L555 710L554 709M526 710L527 711L526 710z"/>
<path style="fill:#f7beb4; stroke:none;" d="M551 710L552 711L551 710z"/>
<path style="fill:#ec6e5a; stroke:none;" d="M552 710L553 711L552 710M525 711L526 712L525 711z"/>
<path style="fill:#f7beb4; stroke:none;" d="M526 711L527 712L526 711M549 711L550 712L549 711z"/>
<path style="fill:#ec6e5a; stroke:none;" d="M550 711L551 712L550 711z"/>
<path style="fill:#f19484; stroke:none;" d="M525 712L526 713L525 712z"/>
<path style="fill:#f7beb4; stroke:none;" d="M546 712L547 713L546 712z"/>
<path style="fill:#f19484; stroke:none;" d="M547 712L548 713L547 712z"/>
<path style="fill:#ec6e5a; stroke:none;" d="M548 712L549 713L548 712M524 713L525 714L524 713z"/>
<path style="fill:#f7beb4; stroke:none;" d="M525 713L526 714L525 713M544 713L545 714L544 713z"/>
<path style="fill:#f19484; stroke:none;" d="M545 713L546 714L545 713M524 714L525 715L524 714z"/>
<path style="fill:#f7beb4; stroke:none;" d="M542 714L543 715L542 714z"/>
<path style="fill:#ec6e5a; stroke:none;" d="M543 714L544 715L543 714M523 715L524 716L523 715z"/>
<path style="fill:#f7beb4; stroke:none;" d="M524 715L525 716L524 715M539 715L540 716L539 715z"/>
<path style="fill:#f19484; stroke:none;" d="M540 715L541 716L540 715z"/>
<path style="fill:#ec6e5a; stroke:none;" d="M541 715L542 716L541 715z"/>
<path style="fill:#f19484; stroke:none;" d="M523.333 716.667L523.667 717.333L523.333 716.667z"/>
<path style="fill:#f7beb4; stroke:none;" d="M537 716L538 717L537 716z"/>
<path style="fill:#f19484; stroke:none;" d="M538 716L539 717L538 716z"/>
<path style="fill:#f7beb4; stroke:none;" d="M535 717L536 718L535 717z"/>
<path style="fill:#ec6e5a; stroke:none;" d="M536 717L537 718L536 717M522 718L523 719L522 718z"/>
<path style="fill:#f7beb4; stroke:none;" d="M523 718L524 719L523 718M533 718L534 719L533 718z"/>
<path style="fill:#ec6e5a; stroke:none;" d="M534 718L535 719L534 718z"/>
<path style="fill:#f19484; stroke:none;" d="M522 719L523 720L522 719z"/>
<path style="fill:#f7beb4; stroke:none;" d="M530 719L531 720L530 719z"/>
<path style="fill:#f19484; stroke:none;" d="M531 719L532 720L531 719z"/>
<path style="fill:#ec6e5a; stroke:none;" d="M532 719L533 720L532 719M521 720L522 721L521 720z"/>
<path style="fill:#f7beb4; stroke:none;" d="M522 720L523 721L522 720M528 720L529 721L528 720z"/>
<path style="fill:#f19484; stroke:none;" d="M529 720L530 721L529 720M521 721L522 722L521 721z"/>
<path style="fill:#f7beb4; stroke:none;" d="M526 721L527 722L526 721z"/>
<path style="fill:#ec6e5a; stroke:none;" d="M527 721L528 722L527 721z"/>
<path style="fill:#f7beb4; stroke:none;" d="M521.333 722.667L521.667 723.333L521.333 722.667M523 722L524 723L523 722z"/>
<path style="fill:#f19484; stroke:none;" d="M524 722L525 723L524 722z"/>
<path style="fill:#ec6e5a; stroke:none;" d="M525 722L526 723L525 722z"/>
<path style="fill:#f19484; stroke:none;" d="M522 723L523 724L522 723z"/>
<path style="fill:#ec6e5a; stroke:none;" d="M313 727L314 728L313 727z"/>
<path style="fill:#f19484; stroke:none;" d="M314 727L314 728L381 728L360 727L314 727z"/>
</svg>
